<?xml version="1.0" encoding="UTF-8" standalone="no"?>
<!-- Created with Inkscape (http://www.inkscape.org/) -->

<svg
   xmlns:osb="http://www.openswatchbook.org/uri/2009/osb"
   xmlns:dc="http://purl.org/dc/elements/1.1/"
   xmlns:cc="http://creativecommons.org/ns#"
   xmlns:rdf="http://www.w3.org/1999/02/22-rdf-syntax-ns#"
   xmlns:svg="http://www.w3.org/2000/svg"
   xmlns="http://www.w3.org/2000/svg"
   xmlns:sodipodi="http://sodipodi.sourceforge.net/DTD/sodipodi-0.dtd"
   xmlns:inkscape="http://www.inkscape.org/namespaces/inkscape"
   version="1.1"
   id="svg2"
   width="2296"
   height="2089"
   viewBox="0 0 2296 2089"
   sodipodi:docname="logo.svg"
   inkscape:version="0.92.4 (5da689c313, 2019-01-14)">
  <metadata
     id="metadata8">
    <rdf:RDF>
      <cc:Work
         rdf:about="">
        <dc:format>image/svg+xml</dc:format>
        <dc:type
           rdf:resource="http://purl.org/dc/dcmitype/StillImage" />
        <dc:title></dc:title>
      </cc:Work>
    </rdf:RDF>
  </metadata>
  <defs
     id="defs6">
    <linearGradient
       id="linearGradient835"
       osb:paint="solid">
      <stop
         style="stop-color:#ffffff;stop-opacity:1;"
         offset="0"
         id="stop833" />
    </linearGradient>
    <linearGradient
       id="linearGradient829"
       osb:paint="solid">
      <stop
         style="stop-color:#ffffff;stop-opacity:1;"
         offset="0"
         id="stop827" />
    </linearGradient>
  </defs>
  <sodipodi:namedview
     pagecolor="#ffffff"
     bordercolor="#666666"
     borderopacity="1"
     objecttolerance="10"
     gridtolerance="10"
     guidetolerance="10"
     inkscape:pageopacity="0"
     inkscape:pageshadow="2"
     inkscape:window-width="1366"
     inkscape:window-height="705"
     id="namedview4"
     showgrid="false"
     inkscape:zoom="0.11297271"
     inkscape:cx="1142.0984"
     inkscape:cy="1997.6202"
     inkscape:window-x="-8"
     inkscape:window-y="-8"
     inkscape:window-maximized="1"
     inkscape:current-layer="svg2" />
  <g
     id="g847"
     inkscape:export-xdpi="17.482353"
     inkscape:export-ydpi="17.482353"
     style="fill:#facd00;fill-opacity:1;stroke:#f9cc41;stroke-opacity:0"
     transform="translate(-947.13136,-832.05932)">
    <path
       inkscape:connector-curvature="0"
       id="path843"
       d="M 2296,0 1522.4915,8.8516949"
       style="fill:#facd00;fill-opacity:1;stroke:#f9cc41;stroke-width:1px;stroke-linecap:butt;stroke-linejoin:miter;stroke-opacity:0"
       sodipodi:nodetypes="cc" />
  </g>
  <rect
     style="opacity:1;fill:#facd00;fill-opacity:1;stroke:#f9cc3e;stroke-width:18.80839729;stroke-miterlimit:4;stroke-dasharray:none;stroke-opacity:0.98823529"
     id="rect927"
     width="2223.6521"
     height="2223.3062"
     x="69.875198"
     y="-106.81287"
     inkscape:export-xdpi="4.281672"
     inkscape:export-ydpi="4.281672" />
  <g
     id="g1013"
     transform="matrix(24.747598,0,0,27.994411,3150.0768,-7.3899664)"
     inkscape:export-xdpi="4.281672"
     inkscape:export-ydpi="4.281672">
    <g
       transform="matrix(0.33235725,0,0,0.21924289,-42.800337,25.981906)"
       style="stroke:#000000;stroke-width:10;stroke-miterlimit:4;stroke-dasharray:none;stroke-opacity:1"
       id="g994">
      <path
         style="fill:none;stroke:#000000;stroke-width:10;stroke-linecap:butt;stroke-linejoin:miter;stroke-miterlimit:4;stroke-dasharray:none;stroke-opacity:1"
         d="m -140.45911,-36.078522 94.41246,50.040562 -21.837516,52.542373 -39.459584,0.162254 v 0"
         id="path866"
         inkscape:connector-curvature="0"
         sodipodi:nodetypes="ccccc" />
      <path
         style="fill:none;stroke:#000000;stroke-width:10;stroke-linecap:butt;stroke-linejoin:miter;stroke-miterlimit:4;stroke-dasharray:none;stroke-opacity:1"
         d="m -107.12806,66.408518 39.300669,-0.162925 26.016579,44.034627 -29.10331,16.51393 -68.979778,35.38782"
         id="path868"
         inkscape:connector-curvature="0"
         sodipodi:nodetypes="ccccc" />
      <rect
         style="fill:#000000;fill-opacity:1;stroke:#000000;stroke-width:10;stroke-miterlimit:4;stroke-dasharray:none;stroke-opacity:1"
         id="rect870"
         width="1.9146675"
         height="155.11491"
         x="-105.42014"
         y="-14.07234" />
      <path
         style="fill:none;stroke:#000000;stroke-width:10;stroke-linecap:butt;stroke-linejoin:miter;stroke-miterlimit:4;stroke-dasharray:none;stroke-opacity:1"
         d="m -107.12806,66.408518 -30.49973,-0.0198 -21.58278,18.61732 -0.0229,30.303472 54.36782,29.35834 25.13198,12.47062 12.994349,6.77966"
         id="path891"
         inkscape:connector-curvature="0"
         sodipodi:nodetypes="ccccccc" />
      <path
         style="fill:none;stroke:#000000;stroke-width:10;stroke-linecap:butt;stroke-linejoin:miter;stroke-miterlimit:4;stroke-dasharray:none;stroke-opacity:1"
         d="m -66.447811,-38.338409 -38.983049,20.903954 -56.39817,31.746538 -0.0235,28.668641 24.22473,23.404678 30.49973,0.02311 v 0"
         id="path893"
         inkscape:connector-curvature="0"
         sodipodi:nodetypes="ccccccc" />
      <path
         sodipodi:type="star"
         style="fill:none;fill-opacity:1;stroke:#000000;stroke-width:3.96727371;stroke-miterlimit:4;stroke-dasharray:none;stroke-opacity:1"
         id="path940"
         sodipodi:sides="6"
         sodipodi:cx="-138.33475"
         sodipodi:cy="33.525841"
         sodipodi:r1="33.703297"
         sodipodi:r2="30.368364"
         sodipodi:arg1="0.52042495"
         sodipodi:arg2="1.0440238"
         inkscape:flatsided="true"
         inkscape:rounded="0"
         inkscape:randomized="0"
         d="M -109.0935,50.284767 -138.22778,67.228968 -167.46903,50.470041 -167.576,16.766914 -138.44172,-0.17728615 -109.20047,16.58164 Z"
         transform="matrix(2.6419625,0,0,2.4048556,260.32696,-17.008107)" />
    </g>
    <path
       inkscape:connector-curvature="0"
       id="path998"
       d="m -71.668528,60.805347 c -3.07463,-1.035125 -5.811954,-1.882047 -6.082939,-1.882047 -0.270986,0 -2.781405,0.781457 -5.578707,1.736573 l -5.086007,1.736572 -0.764699,-0.887645 -0.7647,-0.887645 4.179535,-1.398233 c 2.298746,-0.769029 4.234559,-1.454497 4.301808,-1.523262 0.133713,-0.136729 -1.462771,-0.708799 -14.598232,-5.230998 l -8.810931,-3.033376 -0.14742,-9.351853 c -0.0811,-5.143518 -0.10387,-9.395406 -0.0506,-9.44864 0.0854,-0.08537 19.230216,-6.841559 22.464043,-7.927529 0.686632,-0.230582 1.248423,-0.479689 1.248423,-0.55357 0,-0.07388 -1.932243,-0.797118 -4.293876,-1.607192 -2.361631,-0.810074 -4.29419,-1.523937 -4.294575,-1.586362 -3.79e-4,-0.06242 0.281422,-0.480571 0.626236,-0.929214 l 0.626935,-0.815715 4.017197,1.400021 c 2.209461,0.770012 4.667304,1.622713 5.461877,1.894892 l 1.444679,0.49487 6.026441,-2.137387 6.026439,-2.137387 0.661099,0.772215 c 0.363604,0.424718 0.664474,0.831128 0.668599,0.903134 0.0077,0.134357 -0.848216,0.455856 -6.624999,2.488488 -1.835164,0.645725 -3.273347,1.229939 -3.195963,1.298254 0.07739,0.06831 5.407857,1.943537 11.845493,4.167161 l 11.70479,4.042952 0.129592,3.124505 c 0.140531,3.388175 0.181011,15.808483 0.05153,15.808483 -0.04367,0 -3.391941,1.174926 -7.440601,2.610946 -4.048661,1.43602 -9.338703,3.288332 -11.75565,4.116246 -2.416946,0.827914 -4.422547,1.53125 -4.456889,1.562968 -0.03434,0.03172 2.146047,0.793807 4.845309,1.693532 l 4.907752,1.635862 -0.397823,0.532211 c -0.79312,1.061038 -0.950472,1.231063 -1.125163,1.215773 -0.09775,-0.0085 -2.693336,-0.862477 -5.767968,-1.897603 z m -7.69298,-12.069178 v -7.190916 h -4.301741 -4.301741 l -3.088227,1.747792 -3.088227,1.747792 -7e-4,2.820901 -6.99e-4,2.820898 5.243377,1.857941 c 2.883857,1.021869 6.187183,2.197326 7.340726,2.612128 1.153543,0.4148 2.119822,0.758728 2.147288,0.764283 0.02747,0.0056 0.04994,-3.225815 0.04994,-7.180819 z m 8.305954,5.482416 c 6.125506,-2.110967 12.068309,-4.317947 12.068309,-4.481808 0,-0.07591 -1.625051,-1.950057 -3.611224,-4.164771 l -3.611226,-4.026753 h -4.678303 -4.678304 v 7.091042 c 0,3.900073 0.02986,7.091042 0.06636,7.091042 0.0365,0 2.036474,-0.678938 4.444386,-1.508752 z M -97.338798,46.96543 v -2.76948 l 3.094534,-1.741402 c 1.701994,-0.957772 3.138791,-1.813012 3.192883,-1.900535 0.05409,-0.08752 -1.51587,-1.18118 -3.488804,-2.43035 l -3.587154,-2.271219 -0.0052,-2.732368 -0.0052,-2.732368 -1.797729,0.602927 -1.797732,0.602927 v 8.344857 8.344856 l 1.947543,0.706633 c 1.071147,0.38865 2.059898,0.715267 2.197224,0.725818 0.188665,0.0145 0.249685,-0.65765 0.249685,-2.750296 z m 42.612698,1.651356 0.936599,-0.319133 -0.05209,-8.401705 -0.05209,-8.401704 -1.683123,-0.565516 c -0.925719,-0.311034 -1.699991,-0.543906 -1.720607,-0.517494 -0.02061,0.02641 -1.44257,2.288533 -3.159898,5.026934 -2.690394,4.290016 -3.085754,5.022413 -2.85743,5.293313 1.39954,1.660524 7.380484,8.204436 7.498613,8.204436 0.08438,0 0.574894,-0.143609 1.090025,-0.319131 z m -24.635408,-16.88054 c 0,-6.161977 -0.05272,-7.793349 -0.249684,-7.725432 -0.137327,0.04735 -3.642343,1.337852 -7.788926,2.867775 l -7.539241,2.781677 -0.0012,2.696594 -0.0012,2.696594 3.532049,2.247161 3.532048,2.247161 h 4.258076 4.258077 z m 15.949612,3.065331 c 1.651272,-2.610409 3.054254,-4.881559 3.11774,-5.047 0.09205,-0.239887 -1.392024,-0.822886 -7.328674,-2.878967 -4.094256,-1.417991 -7.556461,-2.617087 -7.693787,-2.664656 -0.196929,-0.06822 -0.249685,1.542878 -0.249685,7.625166 v 7.711656 h 4.576048 4.576045 z"
       style="fill:none;fill-opacity:1;stroke:#262533;stroke-width:1.9974767;stroke-miterlimit:4;stroke-dasharray:none;stroke-opacity:0" />
    <path
       sodipodi:nodetypes="csscccscscccssscscsscccscscscsssscscccccccccccccscccccsscccssccccscscccccccccccccccscscsccscscccccccsscscscccs"
       inkscape:connector-curvature="0"
       id="path1000"
       d="m -71.668528,60.805347 c -3.07463,-1.035125 -5.811954,-1.882047 -6.082939,-1.882047 -0.270986,0 -2.781405,0.781457 -5.578707,1.736573 l -5.086007,1.736572 -0.764699,-0.887645 -0.7647,-0.887645 4.179535,-1.398233 c 2.298746,-0.769029 4.234559,-1.454497 4.301808,-1.523262 0.133713,-0.136729 -1.462771,-0.708799 -14.598232,-5.230998 l -8.810931,-3.033376 -0.14742,-9.351853 c -0.0811,-5.143518 -0.10387,-9.395406 -0.0506,-9.44864 0.0854,-0.08537 19.230216,-6.841559 22.464043,-7.927529 0.686632,-0.230582 1.248423,-0.479689 1.248423,-0.55357 0,-0.07388 -1.932243,-0.797118 -4.293876,-1.607192 -2.361631,-0.810074 -4.29419,-1.523937 -4.294575,-1.586362 -3.79e-4,-0.06242 0.281422,-0.480571 0.626236,-0.929214 l 0.626935,-0.815715 4.017197,1.400021 c 2.209461,0.770012 4.667304,1.622713 5.461877,1.894892 l 1.444679,0.49487 6.026441,-2.137387 6.026439,-2.137387 0.661099,0.772215 c 0.363604,0.424718 0.664474,0.831128 0.668599,0.903134 0.0077,0.134357 -0.848216,0.455856 -6.624999,2.488488 -1.835164,0.645725 -3.273347,1.229939 -3.195963,1.298254 0.07739,0.06831 5.407857,1.943537 11.845493,4.167161 l 11.70479,4.042952 0.129592,3.124505 c 0.140531,3.388175 0.181011,15.808483 0.05153,15.808483 -0.04367,0 -3.391941,1.174926 -7.440601,2.610946 -4.048661,1.43602 -9.338703,3.288332 -11.75565,4.116246 -2.416946,0.827914 -4.422547,1.53125 -4.456889,1.562968 -0.03434,0.03172 2.146047,0.793807 4.845309,1.693532 l 4.907752,1.635862 -0.397823,0.532211 c -0.79312,1.061038 -0.950472,1.231063 -1.125163,1.215773 -0.09775,-0.0085 -2.693336,-0.862477 -5.767968,-1.897603 z m -7.69298,-12.069178 v -7.190916 h -4.301741 -4.301741 l -3.088227,1.747792 -3.088227,1.747792 -7e-4,2.820901 -6.99e-4,2.820898 5.243377,1.857941 c 2.883857,1.021869 6.187183,2.197326 7.340726,2.612128 3.943091,1.262258 1.966944,3.74955 1.99441,3.755105 0.02747,0.0056 0.152878,-2.990822 0.202818,-10.171641 z m 8.305954,5.482416 c 6.125506,-2.110967 12.068309,-4.317947 12.068309,-4.481808 0,-0.07591 -1.625051,-1.950057 -3.611224,-4.164771 l -3.611226,-4.026753 h -4.678303 -4.678304 v 7.091042 c 0,3.900073 0.02986,7.091042 0.06636,7.091042 0.0365,0 2.036474,-0.678938 4.444386,-1.508752 z M -97.338798,46.96543 v -2.76948 l 3.094534,-1.741402 c 1.701994,-0.957772 3.138791,-1.813012 3.192883,-1.900535 0.05409,-0.08752 -1.51587,-1.18118 -3.488804,-2.43035 l -3.587154,-2.271219 -0.0052,-2.732368 -0.0052,-2.732368 -1.797729,0.602927 -1.797732,0.602927 v 8.344857 8.344856 l 1.947543,0.706633 c 1.071147,0.38865 2.059898,0.715267 2.197224,0.725818 0.188665,0.0145 0.249685,-0.65765 0.249685,-2.750296 z m 42.612698,1.651356 0.936599,-0.319133 -0.05209,-8.401705 -0.05209,-8.401704 -1.683123,-0.565516 c -0.925719,-0.311034 -1.699991,-0.543906 -1.720607,-0.517494 -0.02061,0.02641 -1.44257,2.288533 -3.159898,5.026934 -2.690394,4.290016 -3.085754,5.022413 -2.85743,5.293313 1.39954,1.660524 7.380484,8.204436 7.498613,8.204436 0.08438,0 0.574894,-0.143609 1.090025,-0.319131 z m -24.635408,-16.88054 c 0,-6.161977 -0.05272,-7.793349 -0.249684,-7.725432 -0.137327,0.04735 -3.642343,1.337852 -7.788926,2.867775 l -7.539241,2.781677 -0.0012,2.696594 -0.0012,2.696594 3.532049,2.247161 3.532048,2.247161 h 4.258076 4.258077 z m 15.949612,3.065331 c 1.651272,-2.610409 3.054254,-4.881559 3.11774,-5.047 0.09205,-0.239887 -1.392024,-0.822886 -7.328674,-2.878967 -4.094256,-1.417991 -7.556461,-2.617087 -7.693787,-2.664656 -0.196929,-0.06822 -0.249685,1.542878 -0.249685,7.625166 v 7.711656 h 4.576048 4.576045 z"
       style="fill:#262533;fill-opacity:1;stroke:none;stroke-width:1.9974767;stroke-miterlimit:4;stroke-dasharray:none;stroke-opacity:1" />
  </g>
</svg>
